{"title":"Human body: Pushing the limits (2008) BDRip-AVC MediaClub","uid":9549135,"size":5075795168,"categoryP":"video","categoryS":"hd___movies","magnet":"?xt=urn:btih:a1d5a8aac10f5e8077b65f07e1c2ac37795202c6&amp;dn=Human+body%3A+Pushing+the+limits+%282008%29+BDRip-AVC+MediaClub&amp;tr=udp%3A%2F%2Ftracker.openbittorrent.com%3A80&amp;tr=udp%3A%2F%2Fopen.demonii.com%3A1337&amp;tr=udp%3A%2F%2Ftracker.coppersurfer.tk%3A6969&amp;tr=udp%3A%2F%2Fexodus.desync.com%3A6969","seeders":9,"leechers":1,"uploader":"neni69","files":4,"time":1391201000,"description":" &lt;a href=&quot; http://mediaclub.tv/&quot; rel=&quot;nofollow&quot; target=&quot;_NEW&quot;&gt; http://mediaclub.tv/&lt;/a&gt;   Welcome to MediaClub\n\n===================================================================\n\nUnique ID                      : 223870802673407334152260980684647596083 (0xA86BF2C0CABF107391619C1200C88033)\nComplete name                  : E:MCTelo.Cheloweka.Grani.Wozmozjnogo.(4.serii.iz.4).2008.x264.BDRip(AVC)-MediaClubTelo.Cheloweka.Grani.Wozmozjnogo.(4.serii.iz.4).2008.x264.BDRip(AVC)-MediaClubTelo.Cheloveka.1.serija.Zrenie.2008.x264.BDRip(AVC)-MediaClub.mkv\nFormat                         : Matroska\nFormat version                 : Version 4 / Version 2\nFile size                      : 1.17 GiB\nDuration                       : 41mn 37s\nOverall bit rate               : 4 009 Kbps\nMovie name                     : -= Release MediaClub =-\nEncoded date                   : UTC 2014-01-27 17:12:36\nWriting application            : mkvmerge v6.4.1 ('Omega Point') built on Sep 16 2013 22:05:10\nWriting library                : libebml v1.3.0 + libmatroska v1.4.1\n\nVideo\nID                             : 1\nFormat                         : AVC\nFormat/Info                    : Advanced Video Codec\nFormat profile                 : &lt;a class=&quot;__cf_email__&quot; href=&quot;/cdn-cgi/l/email-protection&quot; data-cfemail=&quot;7931101e1139354d5748&quot;&gt;[email&amp;#160;protected]&lt;/a&gt;&lt;script cf-hash='f9e31' type=&quot;text/javascript&quot;&gt;\n/* &lt;![CDATA[ */!function(){try{var t=&quot;currentScript&quot;in document?document.currentScript:function(){for(var t=document.getElementsByTagName(&quot;script&quot;),e=t.length;e--;)if(t[e].getAttribute(&quot;cf-hash&quot;))return t[e]}();if(t&amp;&amp;t.previousSibling){var e,r,n,i,c=t.previousSibling,a=c.getAttribute(&quot;data-cfemail&quot;);if(a){for(e=&quot;&quot;,r=parseInt(a.substr(0,2),16),n=2;a.length-n;n+=2)i=parseInt(a.substr(n,2),16)^r,e+=String.fromCharCode(i);e=document.createTextNode(e),c.parentNode.replaceChild(e,c)}}}catch(u){}}();/* ]]&gt; */&lt;/script&gt;\nFormat settings, CABAC         : Yes\nFormat settings, ReFrames      : 9 frames\nCodec ID                       : V_MPEG4/ISO/AVC\nDuration                       : 41mn 37s\nBit rate                       : 3 240 Kbps\nWidth                          : 1 024 pixels\nHeight                         : 576 pixels\nDisplay aspect ratio           : 16:9\nFrame rate                     : 23.976 fps\nColor space                    : YUV\nChroma subsampling             : 4:2:0\nBit depth                      : 8 bits\nScan type                      : Progressive\nBits/(Pixel*Frame)             : 0.229\nStream size                    : 941 MiB (79%)\nTitle                          : Telo.Cheloveka.1.serija.Zrenie.2008.x264.BDRip(AVC)-neni\nWriting library                : x264 core 130 r2273 b3065e6\nEncoding settings              : cabac=1 / ref=9 / deblock=1:-2:-2 / analyse=0x3:0x113 / me=umh / subme=11 / psy=1 / psy_rd=1.00:0.10 / mixed_ref=1 / me_range=48 / chroma_me=1 / trellis=2 / 8x8dct=1 / cqm=0 / deadzone=21,11 / fast_pskip=0 / chroma_qp_offset=-3 / threads=9 / lookahead_threads=1 / sliced_threads=0 / nr=0 / decimate=0 / interlaced=0 / bluray_compat=0 / constrained_intra=0 / bframes=8 / b_pyramid=2 / b_adapt=2 / b_bias=0 / direct=3 / weightb=1 / open_gop=0 / weightp=2 / keyint=240 / keyint_min=23 / scenecut=40 / intra_refresh=0 / rc=2pass / mbtree=0 / bitrate=3240 / ratetol=1.0 / qcomp=0.60 / qpmin=0 / qpmax=69 / qpstep=4 / cplxblur=20.0 / qblur=0.5 / ip_ratio=1.40 / pb_ratio=1.30 / aq=2:1.00\nLanguage                       : English\nDefault                        : Yes\nForced                         : Yes\n\nAudio #1\nID                             : 2\nFormat                         : AC-3\nFormat/Info                    : Audio Coding 3\nMode extension                 : CM (complete main)\nFormat settings, Endianness    : Big\nCodec ID                       : A_AC3\nDuration                       : 41mn 37s\nBit rate mode                  : Constant\nBit rate                       : 384 Kbps\nChannel(s)                     : 6 channels\nChannel positions              : Front: L C R, Side: L R, LFE\nSampling rate                  : 48.0 KHz\nBit depth                      : 16 bits\nCompression mode               : Lossy\nDelay relative to video        : 27ms\nStream size                    : 114 MiB (10%)\nTitle                          : DVO | DD 5.1 @ 384 kbps\nLanguage                       : Russian\nDefault                        : Yes\nForced                         : Yes\n\nAudio #2\nID                             : 3\nFormat                         : AC-3\nFormat/Info                    : Audio Coding 3\nMode extension                 : CM (complete main)\nFormat settings, Endianness    : Big\nCodec ID                       : A_AC3\nDuration                       : 41mn 37s\nBit rate mode                  : Constant\nBit rate                       : 384 Kbps\nChannel(s)                     : 6 channels\nChannel positions              : Front: L C R, Side: L R, LFE\nSampling rate                  : 48.0 KHz\nBit depth                      : 16 bits\nCompression mode               : Lossy\nDelay relative to video        : 27ms\nStream size                    : 114 MiB (10%)\nTitle                          : DD 5.1 @ 384 kbps\nLanguage                       : English\nDefault                        : No\nForced                         : No\n\nText\nID                             : 4\nFormat                         : UTF-8\nCodec ID                       : S_TEXT/UTF8\nCodec ID/Info                  : UTF-8 Plain Text\nLanguage                       : English\nDefault                        : No\nForced                         : No\n\nMenu\n00:00:00.000                   : :Chapter 01\n00:01:12.138                   : :Chapter 02\n00:07:31.884                   : :Chapter 03\n00:12:49.068                   : :Chapter 04\n00:18:54.833                   : :Chapter 05\n00:24:37.342                   : :Chapter 06\n00:34:08.780                   : :Chapter 07\n00:41:04.395                   : :Chapter 08\n00:41:37.027                   : :Chapter 09","torrent":{"xt":"urn:btih:a1d5a8aac10f5e8077b65f07e1c2ac37795202c6","amp;dn":"Human+body%3A+Pushing+the+limits+%282008%29+BDRip-AVC+MediaClub","amp;tr":["udp%3A%2F%2Ftracker.openbittorrent.com%3A80","udp%3A%2F%2Fopen.demonii.com%3A1337","udp%3A%2F%2Ftracker.coppersurfer.tk%3A6969","udp%3A%2F%2Fexodus.desync.com%3A6969"],"infoHash":"a1d5a8aac10f5e8077b65f07e1c2ac37795202c6","infoHashBuffer":{"type":"Buffer","data":[161,213,168,170,193,15,94,128,119,182,95,7,225,194,172,55,121,82,2,198]},"announce":[],"urlList":[]}}